<?xml version="1.0" encoding="utf-8"?>
<!-- Generator: Adobe Illustrator 15.0.0, SVG Export Plug-In . SVG Version: 6.00 Build 0)  -->
<!DOCTYPE svg PUBLIC "-//W3C//DTD SVG 1.1//EN" "http://www.w3.org/Graphics/SVG/1.1/DTD/svg11.dtd">
<svg version="1.1" id="Layer_1" xmlns="http://www.w3.org/2000/svg" xmlns:xlink="http://www.w3.org/1999/xlink" x="0px" y="0px"
	 width="350px" height="350px" viewBox="823.25 -40.5 350 350" enable-background="new 823.25 -40.5 350 350" xml:space="preserve">
<rect x="823.25" y="-40.5" fill="#35C6F4" width="350" height="350"/>
<g>
	<path fill="#B3B54F" d="M1106.774,255.001c0.06,18.876-9.736,34.334-21.724,34.403l-165.101-0.036
		c-12.069,0.009-21.742-15.419-21.664-34.438l-0.085-128.924c-0.025-18.983,9.757-34.451,21.755-34.36l165.059-0.005
		c12.07-0.002,21.753,15.416,21.783,34.402L1106.774,255.001z"/>
	<path fill="#FFFFFF" d="M1033.569,163.094c0,0,0.132-5.025,1.958-10.867c0.915-2.926,2.252-6.058,4.211-8.867
		c2.596-3.719,6.284-6.87,11.521-8.224c0,0,17.199-6.453,25.304,18.398c0,0,6.021,24.731-10.812,27.599
		C1065.753,181.133,1032.093,189.019,1033.569,163.094z"/>
	<ellipse fill="#7CB35C" cx="1054.65" cy="163.34" rx="14.295" ry="15.533"/>
	<ellipse fill="#4B803B" cx="1054.65" cy="163.817" rx="9.148" ry="10.397"/>
	<path fill="#1B2816" d="M1060.225,163.819c0,3.035-2.496,5.493-5.574,5.493s-5.572-2.458-5.572-5.493
		c0-3.038,2.494-5.497,5.572-5.497S1060.225,160.781,1060.225,163.819z"/>
	<ellipse fill="#FFFFFF" cx="1058.709" cy="155.096" rx="1.516" ry="3.464"/>
	<ellipse fill="#FFFFFF" cx="1059.889" cy="161.548" rx="1.183" ry="1.493"/>
	<ellipse fill="#FFFFFF" cx="1065.917" cy="157.353" rx="0.955" ry="1.208"/>
	<g>
		<path fill="#FFFFFF" d="M922.955,161.898c0,0,0.295-11.319,6.17-19.733c2.598-3.72,6.282-6.869,11.52-8.224
			c0,0,17.2-6.452,25.306,18.4c0,0,6.021,24.73-10.813,27.6C955.139,179.94,921.479,187.822,922.955,161.898z"/>
		<ellipse fill="#7CB35C" cx="944.037" cy="162.145" rx="14.295" ry="15.533"/>
		<ellipse fill="#4B803B" cx="944.038" cy="162.624" rx="9.146" ry="10.394"/>
		<ellipse fill="#1B2816" cx="944.037" cy="162.624" rx="5.574" ry="5.497"/>
		<ellipse fill="#FFFFFF" cx="943.438" cy="153.663" rx="1.516" ry="3.464"/>
		<ellipse fill="#FFFFFF" cx="941.925" cy="161.487" rx="1.179" ry="1.495"/>
		<ellipse fill="#FFFFFF" cx="935.916" cy="157.127" rx="0.954" ry="1.208"/>
	</g>
	<path fill="#4F4C4C" d="M1129.948,118.202c-35.22-10.1-65.572-4.002-65.572-4.002c-28.596,7.914-59.635,10.316-59.635,10.316
		c-10.11,0.688-52.66-8.945-52.66-8.945c-34.875-9.286-71.495,1.72-71.495,1.72c-9.418,2.405-23.715,5.16-23.715,5.16
		c-2.908,17.191,4.769,22.467,4.769,22.467c6.039,4.129,7.206,12.609,7.206,12.609c11.391,81.173,88.579,51.356,88.579,51.356
		c24.648-12.842,32.325-41.726,32.325-41.726c4.644-21.098,14.177-18.113,14.177-18.113c10.228,0.689,12.794,13.65,12.794,13.65
		c3.356,9.85,7.904,19.135,7.904,19.135c20.461,41.729,69.52,30.265,69.52,30.265c36.27-5.956,39.986-43.789,39.986-43.789
		c2.793-22.467,9.072-24.305,9.072-24.305c5.578-2.519,5.578-7.796,5.578-7.796v-13.067
		C1144.681,122.987,1129.948,118.202,1129.948,118.202z M976.499,173.355c0,0-13.951,34.735-55.103,31.983
		c0,0-34.556,4.13-42.575-45.063c0,0-6.607-26.827,18.511-35.082c0,0,45.649-13.022,79.169,6.54
		C976.499,131.743,993.783,138.793,976.499,173.355z M1128.51,160.104c-8.025,49.18-42.573,45.056-42.573,45.056
		c-41.15,2.753-55.101-31.988-55.101-31.988c-17.293-34.561,0-41.61,0-41.61c33.513-19.562,79.17-6.54,79.17-6.54
		C1135.113,133.279,1128.51,160.104,1128.51,160.104z"/>
	<path fill="#FFF9B8" d="M956.176,64.261c-0.637-0.018-1.167,0.292-1.181,0.687l-0.13,5.424c-0.01,0.388,0.501,0.725,1.146,0.737
		l4.354,0.107c0.641,0.015,1.174-0.301,1.179-0.689l0.132-5.421c0.009-0.395-0.501-0.728-1.144-0.745L956.176,64.261z"/>
	<path fill="#F9F5B4" d="M1039.954,3.444c-1.063-0.028-1.936,0.484-1.957,1.136l-0.217,8.99c-0.015,0.655,0.836,1.198,1.9,1.21
		l7.217,0.185c1.062,0.028,1.945-0.481,1.955-1.136l0.217-8.988c0.017-0.656-0.834-1.205-1.898-1.232L1039.954,3.444z"/>
	<path fill="#B3B51A" d="M943.633-3.676c-1.059-0.028-1.932,0.482-1.952,1.136l-0.217,8.988c-0.016,0.656,0.837,1.192,1.896,1.212
		l7.222,0.176c1.062,0.024,1.938-0.475,1.95-1.129l0.218-8.988c0.018-0.655-0.833-1.204-1.895-1.229L943.633-3.676z"/>
	<path fill="#B3B51A" d="M1044.011,69.8c-1.059-0.028-1.932,0.482-1.952,1.136l-0.217,8.988c-0.016,0.656,0.838,1.192,1.896,1.212
		l7.222,0.176c1.062,0.024,1.938-0.476,1.95-1.129l0.218-8.988c0.018-0.654-0.833-1.204-1.896-1.229L1044.011,69.8z"/>
	<path fill="#EAE3AE" d="M982.104,15.972c-1.057-0.031-1.942,0.485-1.965,1.141l-0.219,9.042c-0.015,0.661,0.843,1.207,1.91,1.23
		l7.259,0.175c1.067,0.03,1.951-0.483,1.963-1.142l0.22-9.039c0.016-0.661-0.841-1.211-1.906-1.239L982.104,15.972z"/>
	<g>
		<path fill="#B3B54F" d="M1078.813,54.808c0.013,3.814-1.966,6.942-4.393,6.958l-33.393-0.009
			c-2.438,0.001-4.401-3.119-4.381-6.966l-0.021-26.075c-0.002-3.839,1.971-6.968,4.402-6.95l33.382,0.001
			c2.445-0.001,4.404,3.117,4.405,6.957L1078.813,54.808z"/>
		<g>
			<path fill="#FFFFFF" d="M1063.496,53.631c-2.069,1.077-4.175,1.485-6.693,1.485c-6.167,0-11.394-4.449-11.394-11.606
				c0-7.638,5.376-14.272,13.723-14.272c6.543,0,10.905,4.56,10.905,10.752c0,5.563-3.159,8.824-6.657,8.824
				c-1.503,0-2.896-0.961-2.819-3.261h-0.112c-1.317,2.187-3.047,3.261-5.304,3.261c-2.181,0-4.061-1.742-4.061-4.671
				c0-4.598,3.686-8.787,8.91-8.787c1.579,0,3.047,0.333,4.023,0.777l-1.277,6.711c-0.563,2.818-0.112,4.118,1.127,4.155
				c1.918,0.073,4.059-2.485,4.059-6.749c0-5.414-3.269-9.308-9.097-9.308c-6.128,0-11.28,4.821-11.28,12.349
				c0,6.19,4.098,10.047,9.663,10.047c2.143,0,4.137-0.445,5.677-1.298L1063.496,53.631z M1061.427,37.616
				c-0.376-0.149-1.017-0.297-1.879-0.297c-3.312,0-5.98,3.077-5.98,6.675c0,1.631,0.828,2.817,2.482,2.817
				c2.182,0,4.175-2.743,4.588-5.042L1061.427,37.616z"/>
		</g>
	</g>
	<g>
		<path fill="#B3B54F" d="M1030.364,77.638c0.017,5.042-2.601,9.171-5.804,9.195l-44.123-0.014c-3.219,0-5.81-4.122-5.786-9.204
			l-0.023-34.447c-0.004-5.071,2.606-9.205,5.812-9.183l44.109,0.002c3.229-0.002,5.815,4.118,5.82,9.191L1030.364,77.638z"/>
		<g>
			<path fill="#FFFFFF" d="M1000.366,53.729c-0.407,0.403-0.95,0.522-1.211,0.268l-3.555-3.506
				c-0.264-0.257-0.141-0.791,0.272-1.194l2.772-2.737c0.408-0.404,0.946-0.521,1.206-0.267l3.563,3.507
				c0.256,0.256,0.133,0.79-0.274,1.195L1000.366,53.729z"/>
			<path fill="#FFFFFF" d="M1002.255,46.726c-0.156,0.153-0.365,0.201-0.469,0.104l-1.369-1.355c-0.1-0.098-0.053-0.309,0.103-0.46
				l1.07-1.056c0.16-0.155,0.369-0.203,0.467-0.104l1.374,1.353c0.102,0.098,0.052,0.306-0.103,0.462L1002.255,46.726z"/>
			<path fill="#FFFFFF" d="M1004.604,44.573c-0.097,0.1-0.231,0.13-0.294,0.068l-0.87-0.857c-0.061-0.064-0.031-0.193,0.066-0.293
				l0.68-0.667c0.097-0.098,0.23-0.129,0.294-0.065l0.87,0.856c0.063,0.062,0.033,0.191-0.066,0.292L1004.604,44.573z"/>
			<path fill="#FFFFFF" d="M1007.044,44.641c-0.101,0.098-0.234,0.125-0.297,0.064l-0.868-0.859
				c-0.063-0.06-0.031-0.188,0.066-0.289l0.68-0.667c0.098-0.101,0.23-0.131,0.295-0.069l0.867,0.859
				c0.066,0.063,0.037,0.193-0.065,0.291L1007.044,44.641z"/>
			<path fill="#FFFFFF" d="M1009.252,48.903c-0.097,0.097-0.23,0.128-0.293,0.066l-0.872-0.859c-0.061-0.063-0.03-0.191,0.07-0.291
				l0.678-0.667c0.097-0.099,0.231-0.128,0.296-0.069l0.867,0.861c0.063,0.063,0.031,0.192-0.065,0.29L1009.252,48.903z"/>
			<path fill="#FFFFFF" d="M1011.486,49.608c-0.073,0.076-0.169,0.098-0.215,0.051l-0.639-0.629
				c-0.043-0.049-0.025-0.145,0.048-0.217l0.499-0.49c0.073-0.073,0.169-0.094,0.216-0.047l0.639,0.63
				c0.049,0.044,0.027,0.145-0.047,0.212L1011.486,49.608z"/>
			<path fill="#FFFFFF" d="M1006.836,41.668c-0.101,0.098-0.232,0.127-0.294,0.065l-0.869-0.859
				c-0.065-0.064-0.034-0.193,0.066-0.291l0.676-0.668c0.099-0.098,0.233-0.129,0.297-0.065l0.867,0.855
				c0.063,0.062,0.035,0.195-0.065,0.293L1006.836,41.668z"/>
			<path fill="#FFFFFF" d="M1005.611,48.346c-0.158,0.155-0.369,0.205-0.468,0.105l-1.371-1.357
				c-0.104-0.097-0.053-0.303,0.104-0.458l1.07-1.056c0.155-0.158,0.367-0.204,0.465-0.104l1.376,1.354
				c0.099,0.1,0.053,0.307-0.106,0.464L1005.611,48.346z"/>
			<path fill="#FFFFFF" d="M1007.773,51.878c-0.159,0.155-0.37,0.204-0.469,0.104l-1.374-1.354c-0.1-0.099-0.052-0.307,0.106-0.46
				l1.068-1.059c0.16-0.152,0.366-0.202,0.47-0.102l1.371,1.353c0.102,0.098,0.053,0.306-0.104,0.46L1007.773,51.878z"/>
			<path fill="#FFFFFF" d="M1011.106,53.524c-0.165,0.162-0.381,0.209-0.484,0.107l-1.424-1.407
				c-0.108-0.102-0.056-0.319,0.105-0.48l1.114-1.096c0.163-0.161,0.383-0.212,0.486-0.107l1.427,1.407
				c0.1,0.102,0.055,0.317-0.109,0.477L1011.106,53.524z"/>
			<path fill="#FFFFFF" d="M1005.711,59.017c-0.421,0.417-0.978,0.543-1.241,0.285l-3.622-3.573
				c-0.267-0.262-0.135-0.809,0.291-1.225l2.867-2.832c0.423-0.417,0.98-0.544,1.241-0.283l3.622,3.572
				c0.266,0.26,0.134,0.809-0.289,1.227L1005.711,59.017z"/>
			<path fill="#FFFFFF" d="M992.645,57.851c-2.388-4.262,1.678-6.868,1.678-6.868l19.157,18.638c1.741,3.245,0,5.216,0,5.216
				l-8.387,8.462c-3.677,2.992-6.771-0.573-6.771-0.573l-7.74-7.506c-2.194-3.371,0.06-6.299,0.06-6.299l6.517-6.425L992.645,57.851
				z M1001.877,67.134l-5.429,5.352l3.385,3.34l-1.174,1.158l0.76,1.192l1.159,1.148l7.082-6.983L1001.877,67.134z M998.701,76.049
				c0.168-0.162,0.222-0.375,0.126-0.467l-1.335-1.318c-0.098-0.094-0.311-0.038-0.477,0.123l-1.122,1.108
				c-0.168,0.166-0.224,0.375-0.126,0.471l1.333,1.316c0.098,0.095,0.314,0.041,0.478-0.122L998.701,76.049z M999.805,79.801
				c0.086-0.083,0.112-0.195,0.06-0.249l-0.725-0.718c-0.057-0.05-0.168-0.026-0.256,0.061l-0.585,0.574
				c-0.086,0.087-0.111,0.198-0.061,0.252l0.73,0.717c0.054,0.05,0.162,0.024,0.252-0.062L999.805,79.801z M997.41,79.006
				c0.099-0.096,0.124-0.229,0.057-0.294l-0.902-0.889c-0.067-0.069-0.201-0.041-0.299,0.055l-0.659,0.65
				c-0.093,0.095-0.121,0.225-0.055,0.289l0.904,0.893c0.065,0.066,0.197,0.04,0.294-0.057L997.41,79.006z"/>
		</g>
	</g>
	<g>
		<path fill="#B3B54F" d="M965.445,50.146c-0.024,3.472-1.787,6.24-3.967,6.238l-30.444,0.002c-2.254,0.022-3.988-2.829-4.033-6.23
			V26.791c0-3.501,1.775-6.268,4.033-6.288l30.359,0.027c2.253-0.039,4.06,2.762,4.031,6.231L965.445,50.146z"/>
		
			<ellipse fill="none" stroke="#FFFFFF" stroke-width="0.5" stroke-miterlimit="10" cx="945.493" cy="38.446" rx="12.776" ry="12.064"/>
		<g>
			<path fill="none" stroke="#FFFFFF" stroke-width="0.5" stroke-miterlimit="10" d="M942.313,40.782
				c1.689,3.305,4.488,3.665,7.017,2.465c1.791-0.851,2.748-1.686,3.462-2.509l1.317,1.546c-0.691,0.806-1.99,2.018-4.175,3.054
				c-4.231,2.012-8.114,0.443-10.113-3.645c-2.005-4.09-1.122-8.445,2.882-10.348c4.513-2.15,7.57,1.16,8.79,3.654
				c0.247,0.505,0.395,0.885,0.477,1.188L942.313,40.782z M948.778,35.53c-0.726-1.552-2.599-3.66-5.411-2.325
				c-2.557,1.218-2.523,3.998-1.887,5.799L948.778,35.53z"/>
		</g>
	</g>
	<g>
		<path fill="#B3B54F" d="M1033.626,15.824c-0.02,3.308-1.7,5.943-3.776,5.939l-28.982,0.003c-2.143,0.021-3.799-2.691-3.83-5.933
			V-6.412c0-3.333,1.688-5.965,3.83-5.985l28.902,0.026c2.148-0.034,3.858,2.629,3.843,5.937L1033.626,15.824z"/>
		<g>
			<path fill="#FFFFFF" stroke="#FFFFFF" stroke-width="0.35" stroke-miterlimit="10" d="M1004.019-3.677h22.628v16.728h-22.628
				V-3.677z M1012.105,4.693l-7.527-7.422v14.83L1012.105,4.693z M1004.983-3.125l9.956,9.826c0.105,0.104,0.237,0.157,0.4,0.157
				c0.159,0,0.294-0.054,0.397-0.157l9.959-9.826H1004.983z M1018.173,5.091l-2.032,1.982c-0.219,0.225-0.489,0.337-0.801,0.337
				c-0.313,0-0.586-0.112-0.816-0.337l-2.02-1.982l-7.521,7.407h20.699L1018.173,5.091z M1018.571,4.693l7.514,7.408v-14.83
				L1018.571,4.693z"/>
		</g>
	</g>
	<g>
		<path fill="#4F4C4C" d="M983.28,252.09h38.898c0,0-3.417,13.32-18.065,14.286C1004.113,266.376,985.561,266.695,983.28,252.09z"/>
		<rect x="985.723" y="252.572" fill="#FFFFFF" width="33.688" height="2.083"/>
		<path fill="#FFFFFF" d="M993.4,262.042h17.484c0,0-1.535,3.46-8.119,3.709C1002.766,265.75,994.427,265.832,993.4,262.042z"/>
	</g>
	<g>
		<path fill="#B3B54F" d="M988.426,4.722c-0.018,2.495-1.283,4.481-2.851,4.479L963.72,9.205c-1.614,0.017-2.864-2.029-2.89-4.476
			v-16.773c0-2.515,1.275-4.5,2.89-4.516l21.796,0.022c1.619-0.028,2.914,1.982,2.898,4.475L988.426,4.722z"/>
		<g>
			<path fill="#FFFFFF" d="M972.785-1.343c-0.541,0.919-0.935,1.597-1.268,2.259c-0.278,0.52-0.427,0.75-0.622,0.709
				c-0.144-0.066-0.123-0.31,0.246-1.043c0.378-0.73,1.646-2.988,2.567-4.284c0.995-1.443,1.586-1.909,2.577-2.29
				c1.095-0.418,1.257-0.303,0.896,0.604c-0.532,1.387-0.985,2.681-1.517,4.361c-0.463,1.418-0.727,2.582-0.836,3.213
				c-0.088,0.684-0.002,1.063,0.289,1.189c0.339,0.105,0.769-0.174,1.189-0.631c0.416-0.455,1.081-1.357,1.685-2.416
				c0.749-1.292,1.055-1.879,1.586-2.972c0.309-0.589,0.438-0.874,0.653-0.779c0.214,0.096-0.156,0.828-0.254,1.04
				c-0.38,0.857-1.238,2.484-1.957,3.701c-0.716,1.221-1.984,3.182-3.699,3.84c-1.093,0.417-1.766,0.083-2.089-0.737
				c-0.263-0.669-0.161-1.476,0.015-2.251c0.413-1.99,1.618-4.869,2.17-5.908C974.115-3.444,973.322-2.256,972.785-1.343z
				 M977.699-11.638c0.679-0.261,1.215,0.188,0.892,1.197c-0.301,1.06-1.379,2.12-1.901,2.32c-0.379-0.206-0.735-0.954-0.737-1.724
				c0.009-0.886,0.711-1.396,1.696-1.774L977.699-11.638z"/>
		</g>
	</g>
</g>
</svg>
